<svg width="97" height="180" viewBox="0 0 97 180" fill="none" xmlns="http://www.w3.org/2000/svg">
<rect x="1.5" y="36.1865" width="94" height="141.798" rx="10.5" fill="white" stroke="#656565" stroke-width="3"/>
<path d="M30.5759 49.2022C30.5759 45.8884 33.2622 43.2021 36.5759 43.2021H76.9699C80.2836 43.2021 82.9699 45.8884 82.9699 49.2021V106.626V137.394C82.9699 140.708 80.2836 143.394 76.9699 143.394H62.7729C59.4592 143.394 56.7729 146.08 56.7729 149.394V164.051C56.7729 167.364 54.0866 170.051 50.7729 170.051H36.5759C33.2622 170.051 30.5759 167.364 30.5759 164.051V125.495C30.5759 122.181 33.2622 119.495 36.5759 119.495H52.6113C55.925 119.495 58.6113 116.809 58.6113 113.495V73.5607C58.6113 70.247 55.925 67.5607 52.6113 67.5607H36.5759C33.2622 67.5607 30.5759 64.8744 30.5759 61.5607V49.2022Z" fill="#656565"/>
<path d="M18.1174 52.2988H15.4583V51.2256H18.1174C18.6324 51.2256 19.0494 51.1436 19.3684 50.9795C19.6874 50.8154 19.9199 50.5876 20.0657 50.2959C20.2161 50.0042 20.2913 49.6715 20.2913 49.2979C20.2913 48.9561 20.2161 48.6348 20.0657 48.334C19.9199 48.0332 19.6874 47.7917 19.3684 47.6094C19.0494 47.4225 18.6324 47.3291 18.1174 47.3291H15.7659V56.2021H14.4465V46.249H18.1174C18.8694 46.249 19.5051 46.3789 20.0247 46.6387C20.5442 46.8984 20.9384 47.2585 21.2073 47.7188C21.4762 48.1745 21.6106 48.6963 21.6106 49.2842C21.6106 49.9222 21.4762 50.4668 21.2073 50.918C20.9384 51.3691 20.5442 51.7132 20.0247 51.9502C19.5051 52.1826 18.8694 52.2988 18.1174 52.2988ZM14.5491 72.249H17.844C18.5914 72.249 19.2226 72.363 19.7376 72.5908C20.2571 72.8187 20.6513 73.1559 20.9202 73.6025C21.1936 74.0446 21.3303 74.5892 21.3303 75.2363C21.3303 75.6921 21.2369 76.109 21.0501 76.4873C20.8678 76.861 20.6034 77.18 20.2571 77.4443C19.9153 77.7041 19.5051 77.8978 19.0266 78.0254L18.6575 78.1689H15.5608L15.5471 77.0957H17.885C18.359 77.0957 18.7532 77.0137 19.0676 76.8496C19.3821 76.681 19.6191 76.4554 19.7786 76.1729C19.9381 75.8903 20.0178 75.5781 20.0178 75.2363C20.0178 74.8535 19.9426 74.5186 19.7922 74.2314C19.6419 73.9443 19.4049 73.7233 19.0813 73.5684C18.7623 73.4089 18.3499 73.3291 17.844 73.3291H15.8684V82.2021H14.5491V72.249ZM20.3665 82.2021L17.9465 77.6904L19.3206 77.6836L21.7747 82.1201V82.2021H20.3665ZM21.5217 98.249V108.202H20.1956L15.1848 100.525V108.202H13.8655V98.249H15.1848L20.2161 105.946V98.249H21.5217ZM16.9622 134.202H14.884L14.8977 133.129H16.9622C17.6731 133.129 18.2656 132.981 18.7395 132.685C19.2135 132.384 19.5689 131.965 19.8059 131.427C20.0475 130.884 20.1682 130.251 20.1682 129.526V128.918C20.1682 128.348 20.0999 127.842 19.9631 127.4C19.8264 126.954 19.6259 126.578 19.3616 126.272C19.0973 125.963 18.7737 125.728 18.3909 125.568C18.0126 125.409 17.5774 125.329 17.0852 125.329H14.843V124.249H17.0852C17.7369 124.249 18.3316 124.358 18.8694 124.577C19.4072 124.791 19.8697 125.104 20.2571 125.514C20.649 125.919 20.9498 126.411 21.1594 126.99C21.3691 127.564 21.4739 128.212 21.4739 128.932V129.526C21.4739 130.246 21.3691 130.896 21.1594 131.475C20.9498 132.049 20.6467 132.539 20.2503 132.944C19.8583 133.35 19.3844 133.662 18.8284 133.881C18.2769 134.095 17.6549 134.202 16.9622 134.202ZM15.5881 124.249V134.202H14.2688V124.249H15.5881ZM20.011 157.687C20.011 157.454 19.9745 157.249 19.9016 157.071C19.8333 156.889 19.7102 156.725 19.5325 156.579C19.3593 156.433 19.1178 156.294 18.8079 156.162C18.5025 156.03 18.1152 155.896 17.6458 155.759C17.1536 155.613 16.7092 155.451 16.3128 155.273C15.9163 155.091 15.5768 154.884 15.2942 154.651C15.0116 154.419 14.7952 154.152 14.6448 153.852C14.4944 153.551 14.4192 153.207 14.4192 152.819C14.4192 152.432 14.499 152.074 14.6585 151.746C14.818 151.418 15.0458 151.133 15.3421 150.892C15.6428 150.646 16.0006 150.454 16.4153 150.317C16.83 150.181 17.2926 150.112 17.803 150.112C18.5504 150.112 19.1838 150.256 19.7034 150.543C20.2275 150.826 20.6262 151.197 20.8997 151.657C21.1731 152.113 21.3098 152.601 21.3098 153.12H19.9973C19.9973 152.746 19.9176 152.416 19.7581 152.129C19.5986 151.837 19.357 151.609 19.0335 151.445C18.7099 151.277 18.2997 151.192 17.803 151.192C17.3336 151.192 16.9462 151.263 16.6409 151.404C16.3355 151.546 16.1077 151.737 15.9573 151.979C15.8115 152.22 15.7385 152.496 15.7385 152.806C15.7385 153.015 15.7818 153.207 15.8684 153.38C15.9596 153.549 16.0986 153.706 16.2854 153.852C16.4768 153.997 16.7184 154.132 17.01 154.255C17.3062 154.378 17.6594 154.496 18.0696 154.61C18.6347 154.77 19.1223 154.948 19.5325 155.144C19.9426 155.34 20.2799 155.561 20.5442 155.807C20.8131 156.048 21.0113 156.324 21.1389 156.634C21.2711 156.939 21.3372 157.285 21.3372 157.673C21.3372 158.078 21.2551 158.445 21.0911 158.773C20.927 159.102 20.6923 159.382 20.387 159.614C20.0816 159.847 19.7148 160.027 19.2864 160.154C18.8626 160.277 18.3886 160.339 17.8645 160.339C17.4042 160.339 16.9508 160.275 16.5042 160.147C16.0621 160.02 15.6588 159.828 15.2942 159.573C14.9342 159.318 14.6448 159.004 14.426 158.63C14.2118 158.252 14.1047 157.814 14.1047 157.317H15.4172C15.4172 157.659 15.4833 157.953 15.6155 158.199C15.7477 158.441 15.9277 158.641 16.1555 158.801C16.388 158.96 16.65 159.079 16.9417 159.156C17.2379 159.229 17.5455 159.266 17.8645 159.266C18.3248 159.266 18.7144 159.202 19.0335 159.074C19.3525 158.947 19.594 158.764 19.7581 158.527C19.9267 158.29 20.011 158.01 20.011 157.687Z" fill="#656565"/>
<path d="M60.9092 12.8691H80.2122V83.1873C80.2122 88.5177 75.8911 92.8389 70.5607 92.8389C65.2303 92.8389 60.9092 88.5177 60.9092 83.1873V12.8691Z" fill="#C4C4C4"/>
<rect x="59.0706" width="22.9798" height="20.2222" rx="5" fill="#656565"/>
</svg>
