<svg width="232" height="54" viewBox="0 0 232 54" fill="none" xmlns="http://www.w3.org/2000/svg">
<path d="M128.488 19.5582L126.721 21.4518L123.375 19.5582H128.488Z" fill="white"/>
<path d="M156.894 10.4684C159.211 12.2433 162.827 15.0133 162.827 15.0133L161.439 15.6445L153.233 16.0233L168.13 16.1495C168.13 16.1495 161.565 12.2359 156.894 10.4684Z" fill="white"/>
<path d="M217.744 47.5848L217.365 44.4286L219.133 46.3223L221.153 47.3323L217.744 47.5848Z" fill="white"/>
<path d="M221.153 47.3323L222.514 47.012C224.453 46.5557 226.299 45.767 227.97 44.6811V44.6811L229.493 43.5588C229.965 43.2116 230.038 42.5357 229.653 42.0952L229.485 41.9037V41.9037C226.565 43.9061 223.297 45.3476 219.85 46.1545L219.133 46.3223L221.153 47.3323Z" fill="white"/>
<path d="M90.6145 35.9701C91.4034 37.5478 91.8456 38.4323 92.6345 40.01C93.374 40.7002 94.5282 41.7774 94.5282 41.7774V41.7774C93.6079 39.7695 92.3831 37.9156 90.8974 36.2812C90.7995 36.1736 90.7047 36.0693 90.6145 35.9701Z" fill="white"/>
<path d="M92.6345 40.01C92.8317 41.144 93.1395 42.9137 93.1395 42.9137L97.0531 42.8563L94.5282 41.7774C94.5282 41.7774 93.374 40.7002 92.6345 40.01Z" fill="white"/>
<path d="M174.947 43.0399L174.694 46.1961H170.402L172.927 44.3024L174.947 43.0399Z" fill="white"/>
<path d="M170.402 46.1961L172.927 44.3024L47.1859 45.6622L170.402 46.1961Z" fill="white"/>
<path d="M60.7272 19.34L59.7516 19.5595L60.1906 21.5108L61.1662 21.2912L60.7272 19.34ZM174.063 15.2658L173.55 16.124L173.751 16.2444L173.985 16.2627L174.063 15.2658ZM217.744 47.5848L216.751 47.7039L216.865 48.6526L217.818 48.582L217.744 47.5848ZM212.961 35.4607C212.61 35.0343 211.98 34.9734 211.554 35.3244C211.127 35.6755 211.066 36.3058 211.417 36.7321L212.961 35.4607ZM186.09 33.9776C186.593 33.75 186.816 33.1575 186.589 32.6543C186.361 32.1511 185.769 31.9277 185.266 32.1554L186.09 33.9776ZM174.694 46.1961V47.1961H175.618L175.691 46.2758L174.694 46.1961ZM19.6853 50.0862L18.6853 50.0988L18.7105 52.0986L19.7104 52.086L19.6853 50.0862ZM56.5384 42.4993C57.0903 42.478 57.5205 42.0134 57.4993 41.4616C57.478 40.9097 57.0134 40.4795 56.4616 40.5007L56.5384 42.4993ZM12 44.8345H11V46.8345H12V44.8345ZM53.5381 38.1687C54.0899 38.1467 54.5194 37.6815 54.4974 37.1296C54.4754 36.5778 54.0102 36.1483 53.4584 36.1703L53.5381 38.1687ZM6.25144 39.8942L5.25191 39.925L5.31349 41.924L6.31302 41.8932L6.25144 39.8942ZM136.204 43.2823C136.756 43.2742 137.197 42.82 137.189 42.2678C137.181 41.7155 136.727 41.2744 136.175 41.2825L136.204 43.2823ZM93.1395 42.9137L92.1542 43.085L92.3005 43.9261L93.1541 43.9136L93.1395 42.9137ZM90.6145 35.9701L91.3545 35.2975C91.3104 35.249 91.2616 35.2049 91.2089 35.166L90.6145 35.9701ZM84.5547 34.0764L83.8049 34.7381L84.1358 35.1131L84.6345 35.0733L84.5547 34.0764ZM84.5547 9.83722L84.2704 8.87848L84.246 8.88573L84.2219 8.89423L84.5547 9.83722ZM191.738 16.6545L191.89 15.6662L191.853 15.6605L191.816 15.6576L191.738 16.6545ZM221.153 47.3323L221.227 48.3295L221.305 48.3237L221.382 48.3057L221.153 47.3323ZM215.35 24.8839C214.875 24.6024 214.262 24.7593 213.98 25.2344C213.699 25.7095 213.856 26.3229 214.331 26.6045L215.35 24.8839ZM221.967 31.0972C222.135 31.6235 222.697 31.9144 223.224 31.747C223.75 31.5795 224.041 31.0171 223.873 30.4908L221.967 31.0972ZM87.7109 33.824L88.3053 33.0198L88.0042 32.7973L87.6311 32.8271L87.7109 33.824ZM92.9851 13.3941L91.9971 13.5484L92.3058 15.5245L93.2938 15.3701L92.9851 13.3941ZM162.827 15.0133L163.241 15.9237L164.759 15.2336L163.435 14.2194L162.827 15.0133ZM109.173 7.94353L109.022 6.955L108.97 6.96285L108.92 6.97599L109.173 7.94353ZM138.84 5.79735L138.749 6.79323L138.762 6.79424L138.84 5.79735ZM118.823 14.5208L117.825 14.5916L117.967 16.5866L118.964 16.5158L118.823 14.5208ZM118.262 18.5582C117.71 18.5582 117.262 19.0059 117.262 19.5582C117.262 20.1104 117.71 20.5582 118.262 20.5582V18.5582ZM128.488 19.5582L129.219 20.2405L130.79 18.5582H128.488V19.5582ZM126.721 21.4518L126.228 22.3221L126.914 22.7103L127.452 22.1342L126.721 21.4518ZM168.13 16.1495L168.121 17.1495L171.812 17.1808L168.642 15.2906L168.13 16.1495ZM161.439 15.6445L161.485 16.6435L161.677 16.6346L161.852 16.5549L161.439 15.6445ZM170.402 46.1961L170.398 47.1961H170.402V46.1961ZM219.133 46.3223L218.402 47.0046L218.525 47.1362L218.686 47.2167L219.133 46.3223ZM94.5282 41.7774L93.8458 42.5085L93.974 42.6281L94.1352 42.697L94.5282 41.7774ZM47.1859 45.6622L47.1751 44.6623L47.1733 44.6623L47.1859 45.6622ZM69.5315 15.1395L69.1986 14.1966L68.9515 14.2838L68.7789 14.481L69.5315 15.1395ZM32.9201 37.9901L32.9509 38.9896L32.96 38.9893L32.9201 37.9901ZM19.6012 38.4004L19.5704 37.4008L19.4192 37.4055L19.2762 37.4546L19.6012 38.4004ZM12.9417 40.6886L12.9725 41.6881L13.1236 41.6834L13.2667 41.6343L12.9417 40.6886ZM30.5 42.5V43.5H30.5192L30.5384 43.4993L30.5 42.5ZM21 42.5V41.5H20.7205L20.4816 41.6449L21 42.5ZM15.5 45.8345V46.8345H15.7795L16.0184 46.6896L15.5 45.8345ZM33.4882 45.8345L33.4757 44.8345L33.1514 44.8386L32.8912 45.0322L33.4882 45.8345ZM26.5467 51L26.5592 51.9999L26.8835 51.9958L27.1437 51.8022L26.5467 51ZM65.9966 19.1794L66.2161 20.155L66.5343 20.0834L66.7491 19.8379L65.9966 19.1794ZM83.4109 31.2686L82.7493 30.5188L81.2496 31.842L81.9112 32.5919L83.4109 31.2686ZM100.714 10.1528L100.461 9.18529L100.194 9.25506L100.001 9.45201L100.714 10.1528ZM97.1793 13.7508L97.3337 14.7389L97.6607 14.6878L97.8927 14.4517L97.1793 13.7508ZM127.952 16.6861L127.926 15.6864L127.952 16.6861ZM123.738 16.7965L123.157 17.6105L123.43 17.805L123.765 17.7962L123.738 16.7965ZM121.671 15.321L122.252 14.5071L121.959 14.298L121.6 14.3235L121.671 15.321ZM90.8974 36.2812L90.1574 36.9539L90.8974 36.2812ZM219.85 46.1545L220.078 47.1282L219.85 46.1545ZM214.995 25.8355L215.504 24.9752L214.995 25.8355ZM222.775 30.3376L223.728 30.0344L222.775 30.3376ZM224.686 24.18L223.939 24.8444L224.686 24.18ZM229.493 43.5588L230.087 44.3638L229.493 43.5588ZM229.653 42.0952L230.405 41.4367L229.653 42.0952ZM212.952 37.0227L212.18 37.6584L212.952 37.0227ZM89.7932 8.28396L89.5089 7.32522L89.7932 8.28396ZM227.71 28.9369L226.82 29.3924L227.71 28.9369ZM229.583 33.576L228.627 33.8665L229.583 33.576ZM176.115 40.7031L175.221 40.2559L176.115 40.7031ZM230.965 38.2633L231.474 39.1242L230.965 38.2633ZM230.988 38.2036L231.945 37.9131L230.988 38.2036ZM182.613 34.453L182.201 33.5419L182.613 34.453ZM230.273 38.672L229.765 37.811L230.273 38.672ZM218.445 20.781L218.293 21.7693L218.445 20.781ZM226.887 27.329L227.778 26.8735L226.887 27.329ZM224.894 24.4137L225.641 23.7493L224.894 24.4137ZM230.456 37.4023L229.765 37.811L230.782 39.5329L231.474 39.1242L230.456 37.4023ZM84.839 10.796L90.0774 9.2427L89.5089 7.32522L84.2704 8.87848L84.839 10.796ZM173.012 15.8025L173.55 16.124L174.576 14.4076L174.039 14.086L173.012 15.8025ZM173.985 16.2627L191.659 17.6514L191.816 15.6576L174.141 14.2689L173.985 16.2627ZM191.585 17.6428L218.293 21.7693L218.598 19.7928L191.89 15.6662L191.585 17.6428ZM185.266 32.1554L182.201 33.5419L183.025 35.3641L186.09 33.9776L185.266 32.1554ZM175.221 40.2559L174.052 42.5927L175.841 43.4871L177.01 41.1503L175.221 40.2559ZM173.95 42.9602L173.698 46.1163L175.691 46.2758L175.944 43.1196L173.95 42.9602ZM213.724 36.387L212.961 35.4607L211.417 36.7321L212.18 37.6584L213.724 36.387ZM218.737 47.4656L218.358 44.3095L216.373 44.5478L216.751 47.7039L218.737 47.4656ZM221.079 46.335L217.67 46.5875L217.818 48.582L221.227 48.3295L221.079 46.335ZM222.285 46.0386L220.924 46.3588L221.382 48.3057L222.743 47.9855L222.285 46.0386ZM225.997 27.7845L226.82 29.3924L228.6 28.4814L227.778 26.8735L225.997 27.7845ZM228.627 33.8665L230.031 38.4941L231.945 37.9131L230.54 33.2855L228.627 33.8665ZM223.939 24.8444L224.146 25.0781L225.641 23.7493L225.433 23.5156L223.939 24.8444ZM123.432 2.75589L126.021 2.60999L125.909 0.613152L123.319 0.759059L123.432 2.75589ZM221.822 30.6408L221.967 31.0972L223.873 30.4908L223.728 30.0344L221.822 30.6408ZM214.331 26.6045L214.485 26.6958L215.504 24.9752L215.35 24.8839L214.331 26.6045ZM91.2089 35.166C90.642 34.7469 89.916 34.2103 89.3319 33.7786C89.0398 33.5627 88.7831 33.373 88.5995 33.2373C88.5077 33.1694 88.4341 33.115 88.3835 33.0776C88.3582 33.0589 88.3387 33.0445 88.3254 33.0347C88.3188 33.0298 88.3138 33.0261 88.3104 33.0236C88.3087 33.0223 88.3074 33.0214 88.3066 33.0207C88.3061 33.0204 88.3058 33.0202 88.3056 33.02C88.3055 33.0199 88.3054 33.0199 88.3054 33.0198C88.3053 33.0198 88.3053 33.0198 88.3053 33.0198C88.3053 33.0198 88.3053 33.0198 87.7109 33.824C87.1165 34.6281 87.1165 34.6281 87.1165 34.6281C87.1165 34.6282 87.1165 34.6282 87.1166 34.6282C87.1166 34.6282 87.1167 34.6283 87.1168 34.6284C87.117 34.6285 87.1174 34.6288 87.1178 34.6291C87.1186 34.6297 87.1199 34.6307 87.1216 34.6319C87.125 34.6344 87.13 34.6381 87.1366 34.643C87.1499 34.6528 87.1694 34.6673 87.1947 34.686C87.2453 34.7234 87.3189 34.7777 87.4107 34.8456C87.5943 34.9813 87.851 35.171 88.1431 35.3869C88.7273 35.8187 89.4532 36.3552 90.0201 36.7743L91.2089 35.166ZM87.6311 32.8271L84.475 33.0796L84.6345 35.0733L87.7906 34.8208L87.6311 32.8271ZM156.286 11.2623C157.444 12.1498 158.928 13.286 160.121 14.2003C160.718 14.6575 161.243 15.0592 161.618 15.3466C161.806 15.4903 161.956 15.6055 162.059 15.6847C162.111 15.7243 162.151 15.7549 162.178 15.7756C162.191 15.786 162.202 15.7939 162.209 15.7992C162.212 15.8018 162.215 15.8038 162.217 15.8052C162.217 15.8058 162.218 15.8063 162.218 15.8067C162.219 15.8068 162.219 15.807 162.219 15.8071C162.219 15.8071 162.219 15.8071 162.219 15.8071C162.219 15.8072 162.219 15.8072 162.827 15.0133C163.435 14.2194 163.435 14.2194 163.435 14.2194C163.435 14.2194 163.435 14.2193 163.435 14.2193C163.435 14.2192 163.435 14.2191 163.435 14.2189C163.434 14.2186 163.434 14.2181 163.433 14.2174C163.431 14.2161 163.428 14.2141 163.425 14.2114C163.418 14.2061 163.408 14.1982 163.394 14.1879C163.367 14.1672 163.327 14.1365 163.275 14.0969C163.172 14.0177 163.022 13.9026 162.834 13.7589C162.459 13.4715 161.934 13.0698 161.337 12.6126C160.144 11.6982 158.66 10.562 157.502 9.67457L156.286 11.2623ZM137.481 6.67653L138.749 6.79315L138.932 4.80155L137.664 4.68493L137.481 6.67653ZM138.762 6.79424L139.056 6.81744L139.213 4.82364L138.919 4.80045L138.762 6.79424ZM127.757 18.8758L125.99 20.7695L127.452 22.1342L129.219 20.2405L127.757 18.8758ZM118.262 20.5582H123.375V18.5582H118.262V20.5582ZM123.375 20.5582H128.488V18.5582H123.375V20.5582ZM127.213 20.5816L123.868 18.6879L122.883 20.4284L126.228 22.3221L127.213 20.5816ZM168.13 16.1495C168.642 15.2906 168.642 15.2905 168.641 15.2905C168.641 15.2904 168.641 15.2904 168.641 15.2903C168.641 15.2901 168.641 15.2899 168.64 15.2896C168.639 15.2891 168.638 15.2883 168.636 15.2873C168.633 15.2852 168.628 15.2822 168.621 15.2784C168.608 15.2706 168.589 15.2592 168.564 15.2443C168.513 15.2145 168.439 15.1709 168.344 15.115C168.153 15.0031 167.875 14.8417 167.528 14.6428C166.834 14.245 165.86 13.6962 164.738 13.0915C162.505 11.8879 159.648 10.4414 157.248 9.53316L156.54 11.4037C158.811 12.263 161.572 13.657 163.789 14.852C164.892 15.4467 165.851 15.9868 166.534 16.378C166.875 16.5736 167.147 16.7318 167.333 16.8408C167.426 16.8953 167.498 16.9375 167.546 16.966C167.57 16.9802 167.588 16.991 167.6 16.9981C167.606 17.0017 167.611 17.0043 167.613 17.0061C167.615 17.0069 167.616 17.0076 167.617 17.008C167.617 17.0082 167.617 17.0083 167.617 17.0084C167.617 17.0084 167.617 17.0085 167.618 17.0085C167.618 17.0085 167.617 17.0085 168.13 16.1495ZM153.224 17.0232L168.121 17.1495L168.138 15.1496L153.241 15.0233L153.224 17.0232ZM153.279 17.0222L161.485 16.6435L161.392 14.6456L153.186 15.0243L153.279 17.0222ZM161.852 16.5549L163.241 15.9237L162.413 14.1029L161.025 14.7342L161.852 16.5549ZM174.694 45.1961H170.402V47.1961H174.694V45.1961ZM228.9 42.7537L227.377 43.876L228.563 45.4862L230.087 44.3638L228.9 42.7537ZM221.6 46.4378L219.58 45.4279L218.686 47.2167L220.706 48.2267L221.6 46.4378ZM219.864 45.64L218.097 43.7463L216.634 45.1109L218.402 47.0046L219.864 45.64ZM228.733 42.5622L228.9 42.7537L230.405 41.4367L230.238 41.2452L228.733 42.5622ZM219.361 47.296L220.078 47.1282L219.622 45.1808L218.905 45.3486L219.361 47.296ZM93.1395 42.9137C94.1247 42.7423 94.1247 42.7423 94.1247 42.7423C94.1247 42.7423 94.1246 42.7423 94.1246 42.7422C94.1246 42.7422 94.1246 42.7421 94.1246 42.742C94.1246 42.7418 94.1245 42.7415 94.1244 42.741C94.1243 42.7402 94.1241 42.7389 94.1238 42.7372C94.1232 42.7338 94.1223 42.7288 94.1212 42.7222C94.1189 42.7089 94.1155 42.6894 94.1111 42.6641C94.1022 42.6135 94.0895 42.5399 94.0735 42.4481C94.0416 42.2645 93.9969 42.0078 93.9461 41.7157C93.8445 41.1315 93.7183 40.4056 93.6197 39.8387L91.6493 40.1813C91.7479 40.7483 91.8741 41.4742 91.9757 42.0584C92.0265 42.3505 92.0711 42.6071 92.1031 42.7908C92.119 42.8826 92.1318 42.9561 92.1406 43.0067C92.145 43.032 92.1484 43.0516 92.1507 43.0648C92.1519 43.0715 92.1528 43.0765 92.1534 43.0799C92.1536 43.0816 92.1539 43.0829 92.154 43.0837C92.1541 43.0841 92.1541 43.0845 92.1542 43.0847C92.1542 43.0848 92.1542 43.0849 92.1542 43.0849C92.1542 43.0849 92.1542 43.085 92.1542 43.085C92.1542 43.085 92.1542 43.085 93.1395 42.9137ZM93.5289 39.5628C93.1345 38.774 92.8267 38.1584 92.5189 37.5429C92.2112 36.9273 91.9034 36.3118 91.509 35.5229L89.7201 36.4173C90.1145 37.2062 90.4223 37.8217 90.7301 38.4373C91.0378 39.0528 91.3456 39.6684 91.74 40.4572L93.5289 39.5628ZM136.175 41.2825L97.0384 41.8564L97.0677 43.8562L136.204 43.2823L136.175 41.2825ZM97.0384 41.8564L93.1248 41.9138L93.1541 43.9136L97.0677 43.8562L97.0384 41.8564ZM91.9521 40.7411C92.3219 41.0862 92.7953 41.528 93.1763 41.8836C93.3668 42.0614 93.5342 42.2176 93.6539 42.3294C93.7138 42.3853 93.7618 42.4301 93.7948 42.4609C93.8113 42.4763 93.8241 42.4882 93.8327 42.4962C93.837 42.5003 93.8403 42.5033 93.8425 42.5054C93.8436 42.5064 93.8444 42.5072 93.845 42.5077C93.8453 42.508 93.8455 42.5082 93.8456 42.5083C93.8457 42.5084 93.8457 42.5084 93.8458 42.5084C93.8458 42.5085 93.8458 42.5085 93.8458 42.5085C93.8458 42.5085 93.8458 42.5085 94.5282 41.7774C95.2105 41.0464 95.2105 41.0464 95.2105 41.0464C95.2104 41.0464 95.2104 41.0464 95.2104 41.0463C95.2104 41.0463 95.2103 41.0463 95.2103 41.0462C95.2101 41.0461 95.2099 41.0459 95.2096 41.0456C95.2091 41.0451 95.2082 41.0443 95.2071 41.0433C95.2049 41.0412 95.2016 41.0382 95.1973 41.0341C95.1887 41.0261 95.1759 41.0142 95.1594 40.9988C95.1264 40.968 95.0785 40.9232 95.0186 40.8673C94.8988 40.7555 94.7314 40.5993 94.541 40.4215C94.16 40.0659 93.6866 39.6241 93.3168 39.2789L91.9521 40.7411ZM94.1352 42.697L96.6602 43.7758L97.446 41.9367L94.9211 40.8579L94.1352 42.697ZM91.6373 35.6086C91.5395 35.5009 91.4447 35.3967 91.3545 35.2975L89.8746 36.6428C89.9648 36.742 90.0596 36.8463 90.1574 36.9539L91.6373 35.6086ZM171.002 46.9961L173.527 45.1024L172.327 43.5024L169.802 45.3961L171.002 46.9961ZM173.457 45.1504L175.477 43.8879L174.417 42.1919L172.397 43.4544L173.457 45.1504ZM170.406 45.1961L47.1903 44.6622L47.1816 46.6622L170.398 47.196L170.406 45.1961ZM172.916 43.3024L47.1751 44.6623L47.1967 46.6622L172.938 45.3023L172.916 43.3024ZM109.324 8.93206L118.413 7.54335L118.111 5.56629L109.022 6.955L109.324 8.93206ZM69.8643 16.0825L84.8875 10.7802L84.2219 8.89423L69.1986 14.1966L69.8643 16.0825ZM53.4584 36.1703L32.8803 36.9909L32.96 38.9893L53.5381 38.1687L53.4584 36.1703ZM32.8893 36.9905L19.5704 37.4008L19.632 39.3999L32.9509 38.9896L32.8893 36.9905ZM19.2762 37.4546L12.6167 39.7428L13.2667 41.6343L19.9261 39.3461L19.2762 37.4546ZM12.9109 39.689L6.25144 39.8942L6.31302 41.8932L12.9725 41.6881L12.9109 39.689ZM56.4616 40.5007L30.4616 41.5007L30.5384 43.4993L56.5384 42.4993L56.4616 40.5007ZM30.5 41.5H21V43.5H30.5V41.5ZM20.4816 41.6449L14.9816 44.9793L16.0184 46.6896L21.5184 43.3551L20.4816 41.6449ZM15.5 44.8345H12V46.8345H15.5V44.8345ZM47.1733 44.6623L33.4757 44.8345L33.5008 46.8344L47.1985 46.6622L47.1733 44.6623ZM32.8912 45.0322L25.9497 50.1978L27.1437 51.8022L34.0852 46.6367L32.8912 45.0322ZM26.5341 50.0001L19.6853 50.0862L19.7104 52.086L26.5592 51.9999L26.5341 50.0001ZM61.1662 21.2912L66.2161 20.155L65.7771 18.2038L60.7272 19.34L61.1662 21.2912ZM66.7491 19.8379L70.284 15.7981L68.7789 14.481L65.244 18.5209L66.7491 19.8379ZM85.3046 33.4148L83.4109 31.2686L81.9112 32.5919L83.8049 34.7381L85.3046 33.4148ZM100.967 11.1204L109.425 8.91107L108.92 6.97599L100.461 9.18529L100.967 11.1204ZM93.2938 15.3701L97.3337 14.7389L97.0249 12.7628L92.9851 13.3941L93.2938 15.3701ZM97.8927 14.4517L101.428 10.8537L100.001 9.45201L96.466 13.05L97.8927 14.4517ZM136.405 17.4648L153.259 17.0229L153.206 15.0236L136.352 15.4655L136.405 17.4648ZM127.978 17.6857L136.405 17.4648L136.352 15.4655L127.926 15.6864L127.978 17.6857ZM123.765 17.7962L127.978 17.6857L127.926 15.6864L123.712 15.7969L123.765 17.7962ZM118.964 16.5158L121.742 16.3185L121.6 14.3235L118.823 14.5208L118.964 16.5158ZM121.09 16.135L123.157 17.6105L124.319 15.9826L122.252 14.5071L121.09 16.135ZM95.4372 41.3608C94.4741 39.2593 93.1923 37.319 91.6373 35.6086L90.1574 36.9539C91.574 38.5121 92.7417 40.2797 93.6191 42.1941L95.4372 41.3608ZM220.078 47.1282C223.646 46.293 227.028 44.801 230.051 42.7284L228.92 41.079C226.102 43.0112 222.949 44.4022 219.622 45.1808L220.078 47.1282ZM157.399 9.60575C151.857 6.35654 145.421 5.31375 139.213 4.82364L139.056 6.81744C145.19 7.30175 151.25 8.31895 156.388 11.3311L157.399 9.60575ZM137.664 4.68493C131.126 4.08379 124.538 4.38205 118.081 5.57137L118.444 7.53828C124.72 6.38208 131.125 6.09213 137.481 6.67653L137.664 4.68493ZM214.485 26.6958C216.438 27.8529 218.005 29.5615 218.989 31.6066L220.791 30.739C219.636 28.3386 217.796 26.3334 215.504 24.9752L214.485 26.6958ZM215.773 24.4156C218.655 25.4246 220.896 27.7303 221.822 30.6408L223.728 30.0344C222.611 26.5248 219.91 23.7446 216.433 22.5279L215.773 24.4156ZM126.021 2.60999C133.13 2.20949 140.26 2.80324 147.205 4.37403L147.646 2.42331C140.52 0.811456 133.204 0.202191 125.909 0.613152L126.021 2.60999ZM222.694 23.6753C223.143 24.0268 223.56 24.4181 223.939 24.8444L225.433 23.5156C224.975 22.9995 224.47 22.5259 223.927 22.1003L222.694 23.6753ZM230.087 44.3638C231.029 43.6694 231.176 42.3177 230.405 41.4367L228.9 42.7537L230.087 44.3638ZM212.18 37.6584C213.953 39.8114 215.389 42.221 216.439 44.805L218.292 44.0522C217.166 41.2807 215.626 38.6962 213.724 36.387L212.18 37.6584ZM222.743 47.9855C224.795 47.5026 226.748 46.6684 228.515 45.5195L227.425 43.8427C225.851 44.8657 224.112 45.6087 222.285 46.0386L222.743 47.9855ZM90.0774 9.2427C100.974 6.01167 112.157 3.83836 123.471 2.7529L123.28 0.762047C111.838 1.85977 100.529 4.05766 89.5089 7.32522L90.0774 9.2427ZM226.82 29.3924C227.554 30.8271 228.158 32.3244 228.627 33.8665L230.54 33.2855C230.038 31.6297 229.388 30.022 228.6 28.4814L226.82 29.3924ZM177.932 36.4944C176.832 37.5944 175.916 38.8645 175.221 40.2559L177.01 41.1503C177.609 39.9512 178.398 38.8566 179.346 37.9086L177.932 36.4944ZM231.474 39.1242C231.891 38.8775 232.086 38.3772 231.945 37.9131L230.031 38.4941C229.904 38.0757 230.08 37.6248 230.456 37.4023L231.474 39.1242ZM182.201 33.5419C180.611 34.2608 179.165 35.2611 177.932 36.4944L179.346 37.9086C180.409 36.8457 181.655 35.9837 183.025 35.3641L182.201 33.5419ZM229.765 37.811C228.157 38.7613 227.647 40.8497 228.637 42.4337L230.333 41.3737C229.939 40.7429 230.142 39.9113 230.782 39.5329L229.765 37.811ZM218.293 21.7693C219.899 22.0175 221.414 22.6737 222.694 23.6753L223.927 22.1003C222.377 20.8877 220.542 20.0932 218.598 19.7928L218.293 21.7693ZM147.135 4.35577C156.197 7.09904 164.887 10.9433 173.012 15.8025L174.039 14.086C165.773 9.14291 156.933 5.23223 147.715 2.44158L147.135 4.35577ZM227.778 26.8735C227.201 25.7459 226.483 24.6961 225.641 23.7493L224.146 25.0781C224.875 25.8982 225.497 26.8076 225.997 27.7845L227.778 26.8735Z" fill="white"/>
<circle cx="3" cy="41" r="2.5" fill="#202020" stroke="white"/>
<circle cx="58" cy="21" r="2.5" fill="#202020" stroke="white"/>
<circle cx="81" cy="30" r="2.5" fill="#202020" stroke="white"/>
<circle cx="90" cy="15" r="2.5" fill="#202020" stroke="white"/>
<circle cx="116" cy="16" r="2.5" fill="#202020" stroke="white"/>
<circle cx="9" cy="46" r="2.5" fill="#202020" stroke="white"/>
<circle cx="18" cy="51" r="2.5" fill="#202020" stroke="white"/>
</svg>
