<svg width="227" height="53" viewBox="0 0 227 53" fill="none" xmlns="http://www.w3.org/2000/svg">
<path d="M123.488 19.5582L121.721 21.4518L118.375 19.5582H123.488Z" fill="white"/>
<path d="M151.894 10.4684C154.211 12.2433 157.827 15.0133 157.827 15.0133L156.439 15.6445L148.233 16.0233L163.13 16.1495C163.13 16.1495 156.565 12.2359 151.894 10.4684Z" fill="white"/>
<path d="M212.744 47.5848L212.365 44.4286L214.133 46.3223L216.153 47.3323L212.744 47.5848Z" fill="white"/>
<path d="M216.153 47.3323L217.514 47.012C219.453 46.5557 221.299 45.767 222.97 44.6811V44.6811L224.493 43.5588C224.965 43.2116 225.038 42.5357 224.653 42.0952L224.485 41.9037V41.9037C221.565 43.9061 218.297 45.3476 214.85 46.1545L214.133 46.3223L216.153 47.3323Z" fill="white"/>
<path d="M85.6145 35.9701C86.4034 37.5478 86.8456 38.4323 87.6345 40.01C88.374 40.7002 89.5282 41.7774 89.5282 41.7774V41.7774C88.6079 39.7695 87.3831 37.9156 85.8974 36.2812C85.7995 36.1736 85.7047 36.0693 85.6145 35.9701Z" fill="white"/>
<path d="M87.6345 40.01C87.8317 41.144 88.1395 42.9137 88.1395 42.9137L92.0531 42.8563L89.5282 41.7774C89.5282 41.7774 88.374 40.7002 87.6345 40.01Z" fill="white"/>
<path d="M169.947 43.0399L169.694 46.1961H165.402L167.927 44.3024L169.947 43.0399Z" fill="white"/>
<path d="M165.402 46.1961L167.927 44.3024L42.1859 45.6622L165.402 46.1961Z" fill="white"/>
<path d="M55.7272 19.34L54.7516 19.5595L55.1906 21.5108L56.1662 21.2912L55.7272 19.34ZM169.063 15.2658L168.55 16.124L168.751 16.2444L168.985 16.2627L169.063 15.2658ZM212.744 47.5848L211.751 47.7039L211.865 48.6526L212.818 48.582L212.744 47.5848ZM207.961 35.4607C207.61 35.0343 206.98 34.9734 206.554 35.3244C206.127 35.6755 206.066 36.3058 206.417 36.7321L207.961 35.4607ZM181.09 33.9776C181.593 33.75 181.816 33.1575 181.589 32.6543C181.361 32.1511 180.769 31.9277 180.266 32.1554L181.09 33.9776ZM169.694 46.1961V47.1961H170.618L170.691 46.2758L169.694 46.1961ZM14.6853 50.0862L13.6853 50.0988L13.7105 52.0986L14.7104 52.086L14.6853 50.0862ZM51.5384 42.4993C52.0903 42.478 52.5205 42.0134 52.4993 41.4616C52.478 40.9097 52.0134 40.4795 51.4616 40.5007L51.5384 42.4993ZM7 44.8345H6V46.8345H7V44.8345ZM48.5381 38.1687C49.0899 38.1467 49.5194 37.6815 49.4974 37.1296C49.4754 36.5778 49.0102 36.1483 48.4584 36.1703L48.5381 38.1687ZM1.25144 39.8942L0.25191 39.925L0.313491 41.924L1.31302 41.8932L1.25144 39.8942ZM131.204 43.2823C131.756 43.2742 132.197 42.82 132.189 42.2678C132.181 41.7155 131.727 41.2744 131.175 41.2825L131.204 43.2823ZM88.1395 42.9137L87.1542 43.085L87.3005 43.9261L88.1541 43.9136L88.1395 42.9137ZM85.6145 35.9701L86.3545 35.2975C86.3104 35.249 86.2616 35.2049 86.2089 35.166L85.6145 35.9701ZM79.5547 34.0764L78.8049 34.7381L79.1358 35.1131L79.6345 35.0733L79.5547 34.0764ZM79.5547 9.83722L79.2704 8.87848L79.246 8.88573L79.2219 8.89423L79.5547 9.83722ZM186.738 16.6545L186.89 15.6662L186.853 15.6605L186.816 15.6576L186.738 16.6545ZM216.153 47.3323L216.227 48.3295L216.305 48.3237L216.382 48.3057L216.153 47.3323ZM210.35 24.8839C209.875 24.6024 209.262 24.7593 208.98 25.2344C208.699 25.7095 208.856 26.3229 209.331 26.6045L210.35 24.8839ZM216.967 31.0972C217.135 31.6235 217.697 31.9144 218.224 31.747C218.75 31.5795 219.041 31.0171 218.873 30.4908L216.967 31.0972ZM82.7109 33.824L83.3053 33.0198L83.0042 32.7973L82.6311 32.8271L82.7109 33.824ZM87.9851 13.3941L86.9971 13.5484L87.3058 15.5245L88.2938 15.3701L87.9851 13.3941ZM157.827 15.0133L158.241 15.9237L159.759 15.2336L158.435 14.2194L157.827 15.0133ZM104.173 7.94353L104.022 6.955L103.97 6.96285L103.92 6.97599L104.173 7.94353ZM133.84 5.79735L133.749 6.79323L133.762 6.79424L133.84 5.79735ZM113.823 14.5208L112.825 14.5916L112.967 16.5866L113.964 16.5158L113.823 14.5208ZM113.262 18.5582C112.71 18.5582 112.262 19.0059 112.262 19.5582C112.262 20.1104 112.71 20.5582 113.262 20.5582V18.5582ZM123.488 19.5582L124.219 20.2405L125.79 18.5582H123.488V19.5582ZM121.721 21.4518L121.228 22.3221L121.914 22.7103L122.452 22.1342L121.721 21.4518ZM163.13 16.1495L163.121 17.1495L166.812 17.1808L163.642 15.2906L163.13 16.1495ZM156.439 15.6445L156.485 16.6435L156.677 16.6346L156.852 16.5549L156.439 15.6445ZM165.402 46.1961L165.398 47.1961H165.402V46.1961ZM214.133 46.3223L213.402 47.0046L213.525 47.1362L213.686 47.2167L214.133 46.3223ZM89.5282 41.7774L88.8458 42.5085L88.974 42.6281L89.1352 42.697L89.5282 41.7774ZM42.1859 45.6622L42.1751 44.6623L42.1733 44.6623L42.1859 45.6622ZM64.5315 15.1395L64.1986 14.1966L63.9515 14.2838L63.7789 14.481L64.5315 15.1395ZM27.9201 37.9901L27.9509 38.9896L27.96 38.9893L27.9201 37.9901ZM14.6012 38.4004L14.5704 37.4008L14.4192 37.4055L14.2762 37.4546L14.6012 38.4004ZM7.9417 40.6886L7.97249 41.6881L8.12364 41.6834L8.26666 41.6343L7.9417 40.6886ZM25.5 42.5V43.5H25.5192L25.5384 43.4993L25.5 42.5ZM16 42.5V41.5H15.7205L15.4816 41.6449L16 42.5ZM10.5 45.8345V46.8345H10.7795L11.0184 46.6896L10.5 45.8345ZM28.4882 45.8345L28.4757 44.8345L28.1514 44.8386L27.8912 45.0322L28.4882 45.8345ZM21.5467 51L21.5592 51.9999L21.8835 51.9958L22.1437 51.8022L21.5467 51ZM60.9966 19.1794L61.2161 20.155L61.5343 20.0834L61.7491 19.8379L60.9966 19.1794ZM78.4109 31.2686L77.7493 30.5188L76.2496 31.842L76.9112 32.5919L78.4109 31.2686ZM95.7142 10.1528L95.4615 9.18529L95.1944 9.25506L95.0009 9.45201L95.7142 10.1528ZM92.1793 13.7508L92.3337 14.7389L92.6607 14.6878L92.8927 14.4517L92.1793 13.7508ZM122.952 16.6861L122.926 15.6864L122.952 16.6861ZM118.738 16.7965L118.157 17.6105L118.43 17.805L118.765 17.7962L118.738 16.7965ZM116.671 15.321L117.252 14.5071L116.959 14.298L116.6 14.3235L116.671 15.321ZM85.8974 36.2812L85.1574 36.9539L85.8974 36.2812ZM214.85 46.1545L215.078 47.1282L214.85 46.1545ZM209.995 25.8355L210.504 24.9752L209.995 25.8355ZM217.775 30.3376L218.728 30.0344L217.775 30.3376ZM219.686 24.18L218.939 24.8444L219.686 24.18ZM224.493 43.5588L225.087 44.3638L224.493 43.5588ZM224.653 42.0952L225.405 41.4367L224.653 42.0952ZM207.952 37.0227L207.18 37.6584L207.952 37.0227ZM84.7932 8.28396L84.5089 7.32522L84.7932 8.28396ZM222.71 28.9369L221.82 29.3924L222.71 28.9369ZM224.583 33.576L223.627 33.8665L224.583 33.576ZM171.115 40.7031L170.221 40.2559L171.115 40.7031ZM225.965 38.2633L226.474 39.1242L225.965 38.2633ZM225.988 38.2036L226.945 37.9131L225.988 38.2036ZM177.613 34.453L177.201 33.5419L177.613 34.453ZM225.273 38.672L224.765 37.811L225.273 38.672ZM213.445 20.781L213.293 21.7693L213.445 20.781ZM221.887 27.329L222.778 26.8735L221.887 27.329ZM219.894 24.4137L220.641 23.7493L219.894 24.4137ZM225.456 37.4023L224.765 37.811L225.782 39.5329L226.474 39.1242L225.456 37.4023ZM79.839 10.796L85.0774 9.2427L84.5089 7.32522L79.2704 8.87848L79.839 10.796ZM168.012 15.8025L168.55 16.124L169.576 14.4076L169.039 14.086L168.012 15.8025ZM168.985 16.2627L186.659 17.6514L186.816 15.6576L169.141 14.2689L168.985 16.2627ZM186.585 17.6428L213.293 21.7693L213.598 19.7928L186.89 15.6662L186.585 17.6428ZM180.266 32.1554L177.201 33.5419L178.025 35.3641L181.09 33.9776L180.266 32.1554ZM170.221 40.2559L169.052 42.5927L170.841 43.4871L172.01 41.1503L170.221 40.2559ZM168.95 42.9602L168.698 46.1163L170.691 46.2758L170.944 43.1196L168.95 42.9602ZM208.724 36.387L207.961 35.4607L206.417 36.7321L207.18 37.6584L208.724 36.387ZM213.737 47.4656L213.358 44.3095L211.373 44.5478L211.751 47.7039L213.737 47.4656ZM216.079 46.335L212.67 46.5875L212.818 48.582L216.227 48.3295L216.079 46.335ZM217.285 46.0386L215.924 46.3588L216.382 48.3057L217.743 47.9855L217.285 46.0386ZM220.997 27.7845L221.82 29.3924L223.6 28.4814L222.778 26.8735L220.997 27.7845ZM223.627 33.8665L225.031 38.4941L226.945 37.9131L225.54 33.2855L223.627 33.8665ZM218.939 24.8444L219.146 25.0781L220.641 23.7493L220.433 23.5156L218.939 24.8444ZM118.432 2.75589L121.021 2.60999L120.909 0.613152L118.319 0.759059L118.432 2.75589ZM216.822 30.6408L216.967 31.0972L218.873 30.4908L218.728 30.0344L216.822 30.6408ZM209.331 26.6045L209.485 26.6958L210.504 24.9752L210.35 24.8839L209.331 26.6045ZM86.2089 35.166C85.642 34.7469 84.916 34.2103 84.3319 33.7786C84.0398 33.5627 83.7831 33.373 83.5995 33.2373C83.5077 33.1694 83.4341 33.115 83.3835 33.0776C83.3582 33.0589 83.3387 33.0445 83.3254 33.0347C83.3188 33.0298 83.3138 33.0261 83.3104 33.0236C83.3087 33.0223 83.3074 33.0214 83.3066 33.0207C83.3061 33.0204 83.3058 33.0202 83.3056 33.02C83.3055 33.0199 83.3054 33.0199 83.3054 33.0198C83.3053 33.0198 83.3053 33.0198 83.3053 33.0198C83.3053 33.0198 83.3053 33.0198 82.7109 33.824C82.1165 34.6281 82.1165 34.6281 82.1165 34.6281C82.1165 34.6282 82.1165 34.6282 82.1166 34.6282C82.1166 34.6282 82.1167 34.6283 82.1168 34.6284C82.117 34.6285 82.1174 34.6288 82.1178 34.6291C82.1186 34.6297 82.1199 34.6307 82.1216 34.6319C82.125 34.6344 82.13 34.6381 82.1366 34.643C82.1499 34.6528 82.1694 34.6673 82.1947 34.686C82.2453 34.7234 82.3189 34.7777 82.4107 34.8456C82.5943 34.9813 82.851 35.171 83.1431 35.3869C83.7273 35.8187 84.4532 36.3552 85.0201 36.7743L86.2089 35.166ZM82.6311 32.8271L79.475 33.0796L79.6345 35.0733L82.7906 34.8208L82.6311 32.8271ZM151.286 11.2623C152.444 12.1498 153.928 13.286 155.121 14.2003C155.718 14.6575 156.243 15.0592 156.618 15.3466C156.806 15.4903 156.956 15.6055 157.059 15.6847C157.111 15.7243 157.151 15.7549 157.178 15.7756C157.191 15.786 157.202 15.7939 157.209 15.7992C157.212 15.8018 157.215 15.8038 157.217 15.8052C157.217 15.8058 157.218 15.8063 157.218 15.8067C157.219 15.8068 157.219 15.807 157.219 15.8071C157.219 15.8071 157.219 15.8071 157.219 15.8071C157.219 15.8072 157.219 15.8072 157.827 15.0133C158.435 14.2194 158.435 14.2194 158.435 14.2194C158.435 14.2194 158.435 14.2193 158.435 14.2193C158.435 14.2192 158.435 14.2191 158.435 14.2189C158.434 14.2186 158.434 14.2181 158.433 14.2174C158.431 14.2161 158.428 14.2141 158.425 14.2114C158.418 14.2061 158.408 14.1982 158.394 14.1879C158.367 14.1672 158.327 14.1365 158.275 14.0969C158.172 14.0177 158.022 13.9026 157.834 13.7589C157.459 13.4715 156.934 13.0698 156.337 12.6126C155.144 11.6982 153.66 10.562 152.502 9.67457L151.286 11.2623ZM132.481 6.67653L133.749 6.79315L133.932 4.80155L132.664 4.68493L132.481 6.67653ZM133.762 6.79424L134.056 6.81744L134.213 4.82364L133.919 4.80045L133.762 6.79424ZM122.757 18.8758L120.99 20.7695L122.452 22.1342L124.219 20.2405L122.757 18.8758ZM113.262 20.5582H118.375V18.5582H113.262V20.5582ZM118.375 20.5582H123.488V18.5582H118.375V20.5582ZM122.213 20.5816L118.868 18.6879L117.883 20.4284L121.228 22.3221L122.213 20.5816ZM163.13 16.1495C163.642 15.2906 163.642 15.2905 163.641 15.2905C163.641 15.2904 163.641 15.2904 163.641 15.2903C163.641 15.2901 163.641 15.2899 163.64 15.2896C163.639 15.2891 163.638 15.2883 163.636 15.2873C163.633 15.2852 163.628 15.2822 163.621 15.2784C163.608 15.2706 163.589 15.2592 163.564 15.2443C163.513 15.2145 163.439 15.1709 163.344 15.115C163.153 15.0031 162.875 14.8417 162.528 14.6428C161.834 14.245 160.86 13.6962 159.738 13.0915C157.505 11.8879 154.648 10.4414 152.248 9.53316L151.54 11.4037C153.811 12.263 156.572 13.657 158.789 14.852C159.892 15.4467 160.851 15.9868 161.534 16.378C161.875 16.5736 162.147 16.7318 162.333 16.8408C162.426 16.8953 162.498 16.9375 162.546 16.966C162.57 16.9802 162.588 16.991 162.6 16.9981C162.606 17.0017 162.611 17.0043 162.613 17.0061C162.615 17.0069 162.616 17.0076 162.617 17.008C162.617 17.0082 162.617 17.0083 162.617 17.0084C162.617 17.0084 162.617 17.0085 162.618 17.0085C162.618 17.0085 162.617 17.0085 163.13 16.1495ZM148.224 17.0232L163.121 17.1495L163.138 15.1496L148.241 15.0233L148.224 17.0232ZM148.279 17.0222L156.485 16.6435L156.392 14.6456L148.186 15.0243L148.279 17.0222ZM156.852 16.5549L158.241 15.9237L157.413 14.1029L156.025 14.7342L156.852 16.5549ZM169.694 45.1961H165.402V47.1961H169.694V45.1961ZM223.9 42.7537L222.377 43.876L223.563 45.4862L225.087 44.3638L223.9 42.7537ZM216.6 46.4378L214.58 45.4279L213.686 47.2167L215.706 48.2267L216.6 46.4378ZM214.864 45.64L213.097 43.7463L211.634 45.1109L213.402 47.0046L214.864 45.64ZM223.733 42.5622L223.9 42.7537L225.405 41.4367L225.238 41.2452L223.733 42.5622ZM214.361 47.296L215.078 47.1282L214.622 45.1808L213.905 45.3486L214.361 47.296ZM88.1395 42.9137C89.1247 42.7423 89.1247 42.7423 89.1247 42.7423C89.1247 42.7423 89.1246 42.7423 89.1246 42.7422C89.1246 42.7422 89.1246 42.7421 89.1246 42.742C89.1246 42.7418 89.1245 42.7415 89.1244 42.741C89.1243 42.7402 89.1241 42.7389 89.1238 42.7372C89.1232 42.7338 89.1223 42.7288 89.1212 42.7222C89.1189 42.7089 89.1155 42.6894 89.1111 42.6641C89.1022 42.6135 89.0895 42.5399 89.0735 42.4481C89.0416 42.2645 88.9969 42.0078 88.9461 41.7157C88.8445 41.1315 88.7183 40.4056 88.6197 39.8387L86.6493 40.1813C86.7479 40.7483 86.8741 41.4742 86.9757 42.0584C87.0265 42.3505 87.0711 42.6071 87.1031 42.7908C87.119 42.8826 87.1318 42.9561 87.1406 43.0067C87.145 43.032 87.1484 43.0516 87.1507 43.0648C87.1519 43.0715 87.1528 43.0765 87.1534 43.0799C87.1536 43.0816 87.1539 43.0829 87.154 43.0837C87.1541 43.0841 87.1541 43.0845 87.1542 43.0847C87.1542 43.0848 87.1542 43.0849 87.1542 43.0849C87.1542 43.0849 87.1542 43.085 87.1542 43.085C87.1542 43.085 87.1542 43.085 88.1395 42.9137ZM88.5289 39.5628C88.1345 38.774 87.8267 38.1584 87.5189 37.5429C87.2112 36.9273 86.9034 36.3118 86.509 35.5229L84.7201 36.4173C85.1145 37.2062 85.4223 37.8217 85.7301 38.4373C86.0378 39.0528 86.3456 39.6684 86.74 40.4572L88.5289 39.5628ZM131.175 41.2825L92.0384 41.8564L92.0677 43.8562L131.204 43.2823L131.175 41.2825ZM92.0384 41.8564L88.1248 41.9138L88.1541 43.9136L92.0677 43.8562L92.0384 41.8564ZM86.9521 40.7411C87.3219 41.0862 87.7953 41.528 88.1763 41.8836C88.3668 42.0614 88.5342 42.2176 88.6539 42.3294C88.7138 42.3853 88.7618 42.4301 88.7948 42.4609C88.8113 42.4763 88.8241 42.4882 88.8327 42.4962C88.837 42.5003 88.8403 42.5033 88.8425 42.5054C88.8436 42.5064 88.8444 42.5072 88.845 42.5077C88.8453 42.508 88.8455 42.5082 88.8456 42.5083C88.8457 42.5084 88.8457 42.5084 88.8458 42.5084C88.8458 42.5085 88.8458 42.5085 88.8458 42.5085C88.8458 42.5085 88.8458 42.5085 89.5282 41.7774C90.2105 41.0464 90.2105 41.0464 90.2105 41.0464C90.2104 41.0464 90.2104 41.0464 90.2104 41.0463C90.2104 41.0463 90.2103 41.0463 90.2103 41.0462C90.2101 41.0461 90.2099 41.0459 90.2096 41.0456C90.2091 41.0451 90.2082 41.0443 90.2071 41.0433C90.2049 41.0412 90.2016 41.0382 90.1973 41.0341C90.1887 41.0261 90.1759 41.0142 90.1594 40.9988C90.1264 40.968 90.0785 40.9232 90.0186 40.8673C89.8988 40.7555 89.7314 40.5993 89.541 40.4215C89.16 40.0659 88.6866 39.6241 88.3168 39.2789L86.9521 40.7411ZM89.1352 42.697L91.6602 43.7758L92.446 41.9367L89.9211 40.8579L89.1352 42.697ZM86.6373 35.6086C86.5395 35.5009 86.4447 35.3967 86.3545 35.2975L84.8746 36.6428C84.9648 36.742 85.0596 36.8463 85.1574 36.9539L86.6373 35.6086ZM166.002 46.9961L168.527 45.1024L167.327 43.5024L164.802 45.3961L166.002 46.9961ZM168.457 45.1504L170.477 43.8879L169.417 42.1919L167.397 43.4544L168.457 45.1504ZM165.406 45.1961L42.1903 44.6622L42.1816 46.6622L165.398 47.196L165.406 45.1961ZM167.916 43.3024L42.1751 44.6623L42.1967 46.6622L167.938 45.3023L167.916 43.3024ZM104.324 8.93206L113.413 7.54335L113.111 5.56629L104.022 6.955L104.324 8.93206ZM64.8643 16.0825L79.8875 10.7802L79.2219 8.89423L64.1986 14.1966L64.8643 16.0825ZM48.4584 36.1703L27.8803 36.9909L27.96 38.9893L48.5381 38.1687L48.4584 36.1703ZM27.8893 36.9905L14.5704 37.4008L14.632 39.3999L27.9509 38.9896L27.8893 36.9905ZM14.2762 37.4546L7.61675 39.7428L8.26666 41.6343L14.9261 39.3461L14.2762 37.4546ZM7.91091 39.689L1.25144 39.8942L1.31302 41.8932L7.97249 41.6881L7.91091 39.689ZM51.4616 40.5007L25.4616 41.5007L25.5384 43.4993L51.5384 42.4993L51.4616 40.5007ZM25.5 41.5H16V43.5H25.5V41.5ZM15.4816 41.6449L9.98157 44.9793L11.0184 46.6896L16.5184 43.3551L15.4816 41.6449ZM10.5 44.8345H7V46.8345H10.5V44.8345ZM42.1733 44.6623L28.4757 44.8345L28.5008 46.8344L42.1985 46.6622L42.1733 44.6623ZM27.8912 45.0322L20.9497 50.1978L22.1437 51.8022L29.0852 46.6367L27.8912 45.0322ZM21.5341 50.0001L14.6853 50.0862L14.7104 52.086L21.5592 51.9999L21.5341 50.0001ZM56.1662 21.2912L61.2161 20.155L60.7771 18.2038L55.7272 19.34L56.1662 21.2912ZM61.7491 19.8379L65.284 15.7981L63.7789 14.481L60.244 18.5209L61.7491 19.8379ZM80.3046 33.4148L78.4109 31.2686L76.9112 32.5919L78.8049 34.7381L80.3046 33.4148ZM95.9669 11.1204L104.425 8.91107L103.92 6.97599L95.4615 9.18529L95.9669 11.1204ZM88.2938 15.3701L92.3337 14.7389L92.0249 12.7628L87.9851 13.3941L88.2938 15.3701ZM92.8927 14.4517L96.4275 10.8537L95.0009 9.45201L91.466 13.05L92.8927 14.4517ZM131.405 17.4648L148.259 17.0229L148.206 15.0236L131.352 15.4655L131.405 17.4648ZM122.978 17.6857L131.405 17.4648L131.352 15.4655L122.926 15.6864L122.978 17.6857ZM118.765 17.7962L122.978 17.6857L122.926 15.6864L118.712 15.7969L118.765 17.7962ZM113.964 16.5158L116.742 16.3185L116.6 14.3235L113.823 14.5208L113.964 16.5158ZM116.09 16.135L118.157 17.6105L119.319 15.9826L117.252 14.5071L116.09 16.135ZM90.4372 41.3608C89.4741 39.2593 88.1923 37.319 86.6373 35.6086L85.1574 36.9539C86.574 38.5121 87.7417 40.2797 88.6191 42.1941L90.4372 41.3608ZM215.078 47.1282C218.646 46.293 222.028 44.801 225.051 42.7284L223.92 41.079C221.102 43.0112 217.949 44.4022 214.622 45.1808L215.078 47.1282ZM152.399 9.60575C146.857 6.35654 140.421 5.31375 134.213 4.82364L134.056 6.81744C140.19 7.30175 146.25 8.31895 151.388 11.3311L152.399 9.60575ZM132.664 4.68493C126.126 4.08379 119.538 4.38205 113.081 5.57137L113.444 7.53828C119.72 6.38208 126.125 6.09213 132.481 6.67653L132.664 4.68493ZM209.485 26.6958C211.438 27.8529 213.005 29.5615 213.989 31.6066L215.791 30.739C214.636 28.3386 212.796 26.3334 210.504 24.9752L209.485 26.6958ZM210.773 24.4156C213.655 25.4246 215.896 27.7303 216.822 30.6408L218.728 30.0344C217.611 26.5248 214.91 23.7446 211.433 22.5279L210.773 24.4156ZM121.021 2.60999C128.13 2.20949 135.26 2.80324 142.205 4.37403L142.646 2.42331C135.52 0.811456 128.204 0.202191 120.909 0.613152L121.021 2.60999ZM217.694 23.6753C218.143 24.0268 218.56 24.4181 218.939 24.8444L220.433 23.5156C219.975 22.9995 219.47 22.5259 218.927 22.1003L217.694 23.6753ZM225.087 44.3638C226.029 43.6694 226.176 42.3177 225.405 41.4367L223.9 42.7537L225.087 44.3638ZM207.18 37.6584C208.953 39.8114 210.389 42.221 211.439 44.805L213.292 44.0522C212.166 41.2807 210.626 38.6962 208.724 36.387L207.18 37.6584ZM217.743 47.9855C219.795 47.5026 221.748 46.6684 223.515 45.5195L222.425 43.8427C220.851 44.8657 219.112 45.6087 217.285 46.0386L217.743 47.9855ZM85.0774 9.2427C95.9742 6.01167 107.157 3.83836 118.471 2.7529L118.28 0.762047C106.838 1.85977 95.5289 4.05766 84.5089 7.32522L85.0774 9.2427ZM221.82 29.3924C222.554 30.8271 223.158 32.3244 223.627 33.8665L225.54 33.2855C225.038 31.6297 224.388 30.022 223.6 28.4814L221.82 29.3924ZM172.932 36.4944C171.832 37.5944 170.916 38.8645 170.221 40.2559L172.01 41.1503C172.609 39.9512 173.398 38.8566 174.346 37.9086L172.932 36.4944ZM226.474 39.1242C226.891 38.8775 227.086 38.3772 226.945 37.9131L225.031 38.4941C224.904 38.0757 225.08 37.6248 225.456 37.4023L226.474 39.1242ZM177.201 33.5419C175.611 34.2608 174.165 35.2611 172.932 36.4944L174.346 37.9086C175.409 36.8457 176.655 35.9837 178.025 35.3641L177.201 33.5419ZM224.765 37.811C223.157 38.7613 222.647 40.8497 223.637 42.4337L225.333 41.3737C224.939 40.7429 225.142 39.9113 225.782 39.5329L224.765 37.811ZM213.293 21.7693C214.899 22.0175 216.414 22.6737 217.694 23.6753L218.927 22.1003C217.377 20.8877 215.542 20.0932 213.598 19.7928L213.293 21.7693ZM142.135 4.35577C151.197 7.09904 159.887 10.9433 168.012 15.8025L169.039 14.086C160.773 9.14291 151.933 5.23223 142.715 2.44158L142.135 4.35577ZM222.778 26.8735C222.201 25.7459 221.483 24.6961 220.641 23.7493L219.146 25.0781C219.875 25.8982 220.497 26.8076 220.997 27.7845L222.778 26.8735Z" fill="white"/>
</svg>
