<svg width="125" height="100" viewBox="0 0 125 100" fill="none" xmlns="http://www.w3.org/2000/svg">
<path d="M62.4805 62.5C73.6934 62.5 82.6172 53.4062 82.6172 42.1875C82.6172 30.9688 73.5273 21.875 62.4805 21.875C51.2676 21.875 42.3438 30.9688 42.3438 42.1875C42.168 53.3984 51.2695 62.5 62.4805 62.5ZM72.2461 68.75H52.7539C37.4219 68.75 25 80.4102 25 94.7852C25 97.6758 27.4805 100 30.5469 100H94.4531C97.5195 100 100 97.6758 100 94.7852C100 80.4102 87.5781 68.75 72.2461 68.75ZM100 31.25C108.629 31.25 115.625 24.2539 115.625 15.625C115.625 6.99609 108.633 0 100 0C91.3711 0 84.375 6.99609 84.375 15.625C84.375 24.2539 91.3672 31.25 100 31.25ZM35.918 42.1875C35.918 41.1232 36.1098 40.1113 36.2322 39.0801C34.1016 37.9102 31.7578 37.5 29.2773 37.5H17.2031C7.70313 37.5 0 45.6641 0 55.7227C0 57.7344 1.54043 59.375 3.44141 59.375H42.4062C38.418 54.7266 35.918 48.7695 35.918 42.1875ZM25 31.25C33.6289 31.25 40.625 24.2539 40.625 15.625C40.625 6.99609 33.6328 0 25 0C16.3711 0 9.375 6.99609 9.375 15.625C9.375 24.2539 16.3711 31.25 25 31.25ZM107.793 37.5H95.7148C93.2148 37.5 90.8555 38.0932 88.7109 39.1094C88.8281 40.1367 89.0234 41.1328 89.0234 42.1875C89.0234 48.7715 86.5273 54.7285 82.5469 59.375H121.551C123.457 59.375 125 57.7344 125 55.7227C125 45.6641 117.305 37.5 107.793 37.5Z" fill="white"/>
</svg>
