<svg width="120" height="120" viewBox="0 0 120 120" fill="none" xmlns="http://www.w3.org/2000/svg">
<g clip-path="url(#clip0_203_695)">
<path d="M100.8 69.5999L92 51.9999C91.2443 50.771 90.185 49.7575 88.9239 49.0569C87.6628 48.3563 86.2426 47.9923 84.8 47.9999H35.2C33.7574 47.9923 32.3372 48.3563 31.0761 49.0569C29.815 49.7575 28.7556 50.771 28 51.9999L19.2 69.5999L9.28 78.8159C8.87588 79.1907 8.55358 79.645 8.33331 80.1502C8.11304 80.6554 7.99957 81.2007 8 81.7519V116C8 117.061 8.42143 118.078 9.17157 118.828C9.92172 119.578 10.9391 120 12 120H28C29.6 120 32 118.4 32 116.8V112H88V116C88 117.6 89.6 120 91.2 120H108C109.061 120 110.078 119.578 110.828 118.828C111.579 118.078 112 117.061 112 116V81.7519C112 81.2007 111.887 80.6554 111.667 80.1502C111.446 79.645 111.124 79.1907 110.72 78.8159L100.8 69.5999ZM36 55.9999H84L92 71.9999H28L36 55.9999ZM40 92.7999C40 94.3999 37.6 95.9999 36 95.9999H19.2C17.6 95.9999 16 93.5999 16 91.9999V83.1999C16.8 80.7999 18.4 79.1999 20.8 79.9999L36.8 83.1999C38.4 83.1999 40 85.5999 40 87.1999V92.7999ZM104 91.9999C104 93.5999 102.4 95.9999 100.8 95.9999H84C82.4 95.9999 80 94.3999 80 92.7999V87.1999C80 85.5999 81.6 83.1999 83.2 83.1999L99.2 79.9999C101.6 79.1999 103.2 80.7999 104 83.1999V91.9999ZM112 15.9999V23.9999C111.981 26.1394 111.113 28.1837 109.588 29.6838C108.062 31.1839 106.003 32.0169 103.864 31.9999H42.784C40.6405 34.8023 37.8066 37.0007 34.5592 38.3801C31.3118 39.7595 27.7621 40.2728 24.257 39.8697C20.7519 39.4666 17.4114 38.161 14.5619 36.0805C11.7123 34 9.4514 31.2157 8 27.9999H28V11.9999H8C9.4514 8.78406 11.7123 5.99981 14.5619 3.91929C17.4114 1.83877 20.7519 0.533169 24.257 0.130098C27.7621 -0.272973 31.3118 0.240277 34.5592 1.61968C37.8066 2.99909 40.6405 5.19745 42.784 7.9999H103.864C106.003 7.98285 108.062 8.8159 109.588 10.316C111.113 11.8161 111.981 13.8604 112 15.9999Z" fill="white"/>
</g>
<defs>
<clipPath id="clip0_203_695">
<rect width="120" height="120" fill="white"/>
</clipPath>
</defs>
</svg>
