<svg width="184" height="153" viewBox="0 0 184 153" fill="none" xmlns="http://www.w3.org/2000/svg">
<rect y="6.34375" width="184" height="19.0345" rx="9.51724" fill="white"/>
<rect y="31.7241" width="184" height="19.0345" rx="9.51724" fill="white"/>
<rect y="63.4507" width="184" height="19.0345" rx="9.51724" fill="white"/>
<rect y="95.1704" width="184" height="19.0345" rx="9.51724" fill="white"/>
<rect y="126.896" width="184" height="19.0345" rx="9.51724" fill="white"/>
<rect x="20.5339" y="1.5" width="149.276" height="149.276" rx="1.5" fill="#2B2B2B" stroke="#656565" stroke-width="3"/>
<rect x="45" y="16" width="50.3579" height="100.716" rx="6" fill="#656565"/>
<path d="M53.9834 22.9922V33H52.7188V24.5713L50.1689 25.501V24.3594L53.7852 22.9922H53.9834ZM67.4229 27.2305V28.748C67.4229 29.5638 67.3499 30.252 67.2041 30.8125C67.0583 31.373 66.8486 31.8242 66.5752 32.166C66.3018 32.5078 65.9714 32.7562 65.584 32.9111C65.2012 33.0615 64.7682 33.1367 64.2852 33.1367C63.9023 33.1367 63.5492 33.0889 63.2256 32.9932C62.902 32.8975 62.6104 32.7448 62.3506 32.5352C62.0954 32.321 61.8766 32.043 61.6943 31.7012C61.512 31.3594 61.373 30.9447 61.2773 30.457C61.1816 29.9694 61.1338 29.3997 61.1338 28.748V27.2305C61.1338 26.4147 61.2067 25.7311 61.3525 25.1797C61.5029 24.6283 61.7148 24.1862 61.9883 23.8535C62.2617 23.5163 62.5898 23.2747 62.9727 23.1289C63.36 22.9831 63.793 22.9102 64.2715 22.9102C64.6589 22.9102 65.0143 22.958 65.3379 23.0537C65.666 23.1449 65.9577 23.293 66.2129 23.498C66.4681 23.6986 66.6846 23.9674 66.8623 24.3047C67.0446 24.6374 67.1836 25.0452 67.2793 25.5283C67.375 26.0114 67.4229 26.5788 67.4229 27.2305ZM66.1514 28.9531V27.0186C66.1514 26.5719 66.124 26.18 66.0693 25.8428C66.0192 25.501 65.944 25.2093 65.8438 24.9678C65.7435 24.7262 65.6159 24.5303 65.4609 24.3799C65.3105 24.2295 65.1351 24.1201 64.9346 24.0518C64.7386 23.9788 64.5176 23.9424 64.2715 23.9424C63.9707 23.9424 63.7041 23.9993 63.4717 24.1133C63.2393 24.2227 63.0433 24.3981 62.8838 24.6396C62.7288 24.8812 62.6104 25.1979 62.5283 25.5898C62.4463 25.9818 62.4053 26.458 62.4053 27.0186V28.9531C62.4053 29.3997 62.4303 29.7939 62.4805 30.1357C62.5352 30.4775 62.6149 30.7738 62.7197 31.0244C62.8245 31.2705 62.9521 31.4733 63.1025 31.6328C63.2529 31.7923 63.4261 31.9108 63.6221 31.9883C63.8226 32.0612 64.0436 32.0977 64.2852 32.0977C64.5951 32.0977 64.8662 32.0384 65.0986 31.9199C65.3311 31.8014 65.5247 31.6169 65.6797 31.3662C65.8392 31.111 65.9577 30.7852 66.0352 30.3887C66.1126 29.9876 66.1514 29.5091 66.1514 28.9531ZM56.0752 43.2305V44.748C56.0752 45.5638 56.0023 46.252 55.8564 46.8125C55.7106 47.373 55.501 47.8242 55.2275 48.166C54.9541 48.5078 54.6237 48.7562 54.2363 48.9111C53.8535 49.0615 53.4206 49.1367 52.9375 49.1367C52.5547 49.1367 52.2015 49.0889 51.8779 48.9932C51.5544 48.8975 51.2627 48.7448 51.0029 48.5352C50.7477 48.321 50.529 48.043 50.3467 47.7012C50.1644 47.3594 50.0254 46.9447 49.9297 46.457C49.834 45.9694 49.7861 45.3997 49.7861 44.748V43.2305C49.7861 42.4147 49.859 41.7311 50.0049 41.1797C50.1553 40.6283 50.3672 40.1862 50.6406 39.8535C50.9141 39.5163 51.2422 39.2747 51.625 39.1289C52.0124 38.9831 52.4453 38.9102 52.9238 38.9102C53.3112 38.9102 53.6667 38.958 53.9902 39.0537C54.3184 39.1449 54.61 39.293 54.8652 39.498C55.1204 39.6986 55.3369 39.9674 55.5146 40.3047C55.6969 40.6374 55.8359 41.0452 55.9316 41.5283C56.0273 42.0114 56.0752 42.5788 56.0752 43.2305ZM54.8037 44.9531V43.0186C54.8037 42.5719 54.7764 42.18 54.7217 41.8428C54.6715 41.501 54.5964 41.2093 54.4961 40.9678C54.3958 40.7262 54.2682 40.5303 54.1133 40.3799C53.9629 40.2295 53.7874 40.1201 53.5869 40.0518C53.391 39.9788 53.1699 39.9424 52.9238 39.9424C52.623 39.9424 52.3564 39.9993 52.124 40.1133C51.8916 40.2227 51.6956 40.3981 51.5361 40.6396C51.3812 40.8812 51.2627 41.1979 51.1807 41.5898C51.0986 41.9818 51.0576 42.458 51.0576 43.0186V44.9531C51.0576 45.3997 51.0827 45.7939 51.1328 46.1357C51.1875 46.4775 51.2673 46.7738 51.3721 47.0244C51.4769 47.2705 51.6045 47.4733 51.7549 47.6328C51.9053 47.7923 52.0785 47.9108 52.2744 47.9883C52.4749 48.0612 52.696 48.0977 52.9375 48.0977C53.2474 48.0977 53.5186 48.0384 53.751 47.9199C53.9834 47.8014 54.1771 47.6169 54.332 47.3662C54.4915 47.111 54.61 46.7852 54.6875 46.3887C54.765 45.9876 54.8037 45.5091 54.8037 44.9531ZM65.3311 38.9922V49H64.0664V40.5713L61.5166 41.501V40.3594L65.1328 38.9922H65.3311ZM53.9834 54.9922V65H52.7188V56.5713L50.1689 57.501V56.3594L53.7852 54.9922H53.9834ZM67.4229 59.2305V60.748C67.4229 61.5638 67.3499 62.252 67.2041 62.8125C67.0583 63.373 66.8486 63.8242 66.5752 64.166C66.3018 64.5078 65.9714 64.7562 65.584 64.9111C65.2012 65.0615 64.7682 65.1367 64.2852 65.1367C63.9023 65.1367 63.5492 65.0889 63.2256 64.9932C62.902 64.8975 62.6104 64.7448 62.3506 64.5352C62.0954 64.321 61.8766 64.043 61.6943 63.7012C61.512 63.3594 61.373 62.9447 61.2773 62.457C61.1816 61.9694 61.1338 61.3997 61.1338 60.748V59.2305C61.1338 58.4147 61.2067 57.7311 61.3525 57.1797C61.5029 56.6283 61.7148 56.1862 61.9883 55.8535C62.2617 55.5163 62.5898 55.2747 62.9727 55.1289C63.36 54.9831 63.793 54.9102 64.2715 54.9102C64.6589 54.9102 65.0143 54.958 65.3379 55.0537C65.666 55.1449 65.9577 55.293 66.2129 55.498C66.4681 55.6986 66.6846 55.9674 66.8623 56.3047C67.0446 56.6374 67.1836 57.0452 67.2793 57.5283C67.375 58.0114 67.4229 58.5788 67.4229 59.2305ZM66.1514 60.9531V59.0186C66.1514 58.5719 66.124 58.18 66.0693 57.8428C66.0192 57.501 65.944 57.2093 65.8438 56.9678C65.7435 56.7262 65.6159 56.5303 65.4609 56.3799C65.3105 56.2295 65.1351 56.1201 64.9346 56.0518C64.7386 55.9788 64.5176 55.9424 64.2715 55.9424C63.9707 55.9424 63.7041 55.9993 63.4717 56.1133C63.2393 56.2227 63.0433 56.3981 62.8838 56.6396C62.7288 56.8812 62.6104 57.1979 62.5283 57.5898C62.4463 57.9818 62.4053 58.458 62.4053 59.0186V60.9531C62.4053 61.3997 62.4303 61.7939 62.4805 62.1357C62.5352 62.4775 62.6149 62.7738 62.7197 63.0244C62.8245 63.2705 62.9521 63.4733 63.1025 63.6328C63.2529 63.7923 63.4261 63.9108 63.6221 63.9883C63.8226 64.0612 64.0436 64.0977 64.2852 64.0977C64.5951 64.0977 64.8662 64.0384 65.0986 63.9199C65.3311 63.8014 65.5247 63.6169 65.6797 63.3662C65.8392 63.111 65.9577 62.7852 66.0352 62.3887C66.1126 61.9876 66.1514 61.5091 66.1514 60.9531ZM56.0752 75.2305V76.748C56.0752 77.5638 56.0023 78.252 55.8564 78.8125C55.7106 79.373 55.501 79.8242 55.2275 80.166C54.9541 80.5078 54.6237 80.7562 54.2363 80.9111C53.8535 81.0615 53.4206 81.1367 52.9375 81.1367C52.5547 81.1367 52.2015 81.0889 51.8779 80.9932C51.5544 80.8975 51.2627 80.7448 51.0029 80.5352C50.7477 80.321 50.529 80.043 50.3467 79.7012C50.1644 79.3594 50.0254 78.9447 49.9297 78.457C49.834 77.9694 49.7861 77.3997 49.7861 76.748V75.2305C49.7861 74.4147 49.859 73.7311 50.0049 73.1797C50.1553 72.6283 50.3672 72.1862 50.6406 71.8535C50.9141 71.5163 51.2422 71.2747 51.625 71.1289C52.0124 70.9831 52.4453 70.9102 52.9238 70.9102C53.3112 70.9102 53.6667 70.958 53.9902 71.0537C54.3184 71.1449 54.61 71.293 54.8652 71.498C55.1204 71.6986 55.3369 71.9674 55.5146 72.3047C55.6969 72.6374 55.8359 73.0452 55.9316 73.5283C56.0273 74.0114 56.0752 74.5788 56.0752 75.2305ZM54.8037 76.9531V75.0186C54.8037 74.5719 54.7764 74.18 54.7217 73.8428C54.6715 73.501 54.5964 73.2093 54.4961 72.9678C54.3958 72.7262 54.2682 72.5303 54.1133 72.3799C53.9629 72.2295 53.7874 72.1201 53.5869 72.0518C53.391 71.9788 53.1699 71.9424 52.9238 71.9424C52.623 71.9424 52.3564 71.9993 52.124 72.1133C51.8916 72.2227 51.6956 72.3981 51.5361 72.6396C51.3812 72.8812 51.2627 73.1979 51.1807 73.5898C51.0986 73.9818 51.0576 74.458 51.0576 75.0186V76.9531C51.0576 77.3997 51.0827 77.7939 51.1328 78.1357C51.1875 78.4775 51.2673 78.7738 51.3721 79.0244C51.4769 79.2705 51.6045 79.4733 51.7549 79.6328C51.9053 79.7923 52.0785 79.9108 52.2744 79.9883C52.4749 80.0612 52.696 80.0977 52.9375 80.0977C53.2474 80.0977 53.5186 80.0384 53.751 79.9199C53.9834 79.8014 54.1771 79.6169 54.332 79.3662C54.4915 79.111 54.61 78.7852 54.6875 78.3887C54.765 77.9876 54.8037 77.5091 54.8037 76.9531ZM65.3311 70.9922V81H64.0664V72.5713L61.5166 73.501V72.3594L65.1328 70.9922H65.3311Z" fill="white"/>
</svg>
